<svg xmlns="http://www.w3.org/2000/svg" xmlns:xlink="http://www.w3.org/1999/xlink" width="500" zoomAndPan="magnify" viewBox="0 0 375 374.999991" height="500" preserveAspectRatio="xMidYMid meet" version="1.0"><defs><g/></defs><g fill="#000000" fill-opacity="1"><g transform="translate(57.988843, 205.124987)"><g><path d="M 16.4375 0.734375 C 13.488281 0.734375 10.625 0.367188 7.84375 -0.359375 C 5.070312 -1.085938 2.820312 -2.0625 1.09375 -3.28125 L 4.46875 -10.875 C 6.101562 -9.789062 7.992188 -8.921875 10.140625 -8.265625 C 12.285156 -7.609375 14.398438 -7.28125 16.484375 -7.28125 C 20.429688 -7.28125 22.40625 -8.269531 22.40625 -10.25 C 22.40625 -11.28125 21.84375 -12.046875 20.71875 -12.546875 C 19.59375 -13.054688 17.78125 -13.585938 15.28125 -14.140625 C 12.550781 -14.734375 10.265625 -15.367188 8.421875 -16.046875 C 6.585938 -16.722656 5.007812 -17.804688 3.6875 -19.296875 C 2.375 -20.785156 1.71875 -22.796875 1.71875 -25.328125 C 1.71875 -27.546875 2.320312 -29.546875 3.53125 -31.328125 C 4.75 -33.117188 6.5625 -34.53125 8.96875 -35.5625 C 11.375 -36.601562 14.332031 -37.125 17.84375 -37.125 C 20.226562 -37.125 22.582031 -36.851562 24.90625 -36.3125 C 27.226562 -35.78125 29.273438 -34.992188 31.046875 -33.953125 L 27.875 -26.3125 C 24.40625 -28.1875 21.039062 -29.125 17.78125 -29.125 C 15.738281 -29.125 14.25 -28.816406 13.3125 -28.203125 C 12.375 -27.597656 11.90625 -26.8125 11.90625 -25.84375 C 11.90625 -24.875 12.457031 -24.144531 13.5625 -23.65625 C 14.675781 -23.175781 16.460938 -22.675781 18.921875 -22.15625 C 21.703125 -21.5625 24 -20.925781 25.8125 -20.25 C 27.632812 -19.570312 29.210938 -18.492188 30.546875 -17.015625 C 31.878906 -15.546875 32.546875 -13.550781 32.546875 -11.03125 C 32.546875 -8.84375 31.9375 -6.863281 30.71875 -5.09375 C 29.507812 -3.320312 27.691406 -1.90625 25.265625 -0.84375 C 22.835938 0.207031 19.894531 0.734375 16.4375 0.734375 Z M 16.4375 0.734375 "/></g></g></g><g fill="#000000" fill-opacity="1"><g transform="translate(87.678282, 205.124987)"><g><path d="M 21.53125 -28.65625 C 25.03125 -28.65625 27.84375 -27.613281 29.96875 -25.53125 C 32.101562 -23.445312 33.171875 -20.3125 33.171875 -16.125 L 33.171875 0 L 23.296875 0 L 23.296875 -14.515625 C 23.296875 -18.359375 21.753906 -20.28125 18.671875 -20.28125 C 16.972656 -20.28125 15.609375 -19.722656 14.578125 -18.609375 C 13.554688 -17.503906 13.046875 -15.84375 13.046875 -13.625 L 13.046875 0 L 3.171875 0 L 3.171875 -38.578125 L 13.046875 -38.578125 L 13.046875 -25.578125 C 14.117188 -26.585938 15.382812 -27.351562 16.84375 -27.875 C 18.300781 -28.394531 19.863281 -28.65625 21.53125 -28.65625 Z M 21.53125 -28.65625 "/></g></g></g><g fill="#000000" fill-opacity="1"><g transform="translate(119.915531, 205.124987)"><g><path d="M 15.1875 -28.65625 C 19.863281 -28.65625 23.429688 -27.585938 25.890625 -25.453125 C 28.359375 -23.316406 29.59375 -20.050781 29.59375 -15.65625 L 29.59375 0 L 20.390625 0 L 20.390625 -3.640625 C 18.960938 -0.898438 16.1875 0.46875 12.0625 0.46875 C 9.875 0.46875 7.984375 0.0859375 6.390625 -0.671875 C 4.796875 -1.429688 3.59375 -2.460938 2.78125 -3.765625 C 1.96875 -5.066406 1.5625 -6.550781 1.5625 -8.21875 C 1.5625 -10.882812 2.582031 -12.953125 4.625 -14.421875 C 6.675781 -15.898438 9.832031 -16.640625 14.09375 -16.640625 L 19.703125 -16.640625 C 19.535156 -19.617188 17.546875 -21.109375 13.734375 -21.109375 C 12.378906 -21.109375 11.007812 -20.890625 9.625 -20.453125 C 8.238281 -20.023438 7.054688 -19.429688 6.078125 -18.671875 L 2.75 -25.375 C 4.3125 -26.414062 6.207031 -27.222656 8.4375 -27.796875 C 10.675781 -28.367188 12.925781 -28.65625 15.1875 -28.65625 Z M 14.8125 -5.765625 C 15.957031 -5.765625 16.960938 -6.039062 17.828125 -6.59375 C 18.703125 -7.15625 19.328125 -7.972656 19.703125 -9.046875 L 19.703125 -11.484375 L 15.4375 -11.484375 C 12.5625 -11.484375 11.125 -10.53125 11.125 -8.625 C 11.125 -7.757812 11.453125 -7.066406 12.109375 -6.546875 C 12.773438 -6.023438 13.675781 -5.765625 14.8125 -5.765625 Z M 14.8125 -5.765625 "/></g></g></g><g fill="#000000" fill-opacity="1"><g transform="translate(148.617049, 205.124987)"><g><path d="M 12.578125 -24.796875 C 13.585938 -26.085938 14.894531 -27.050781 16.5 -27.6875 C 18.113281 -28.332031 19.960938 -28.65625 22.046875 -28.65625 L 22.046875 -19.765625 C 21.148438 -19.867188 20.40625 -19.921875 19.8125 -19.921875 C 17.695312 -19.921875 16.039062 -19.347656 14.84375 -18.203125 C 13.644531 -17.054688 13.046875 -15.304688 13.046875 -12.953125 L 13.046875 0 L 3.171875 0 L 3.171875 -28.1875 L 12.578125 -28.1875 Z M 12.578125 -24.796875 "/></g></g></g><g fill="#000000" fill-opacity="1"><g transform="translate(167.699303, 205.124987)"><g><path d="M 31.984375 -14.046875 C 31.984375 -13.972656 31.929688 -13.15625 31.828125 -11.59375 L 11.34375 -11.59375 C 11.75 -10.132812 12.550781 -9.015625 13.75 -8.234375 C 14.945312 -7.460938 16.445312 -7.078125 18.25 -7.078125 C 19.601562 -7.078125 20.773438 -7.265625 21.765625 -7.640625 C 22.753906 -8.023438 23.75 -8.648438 24.75 -9.515625 L 29.953125 -4.109375 C 27.210938 -1.054688 23.207031 0.46875 17.9375 0.46875 C 14.644531 0.46875 11.75 -0.15625 9.25 -1.40625 C 6.757812 -2.65625 4.828125 -4.390625 3.453125 -6.609375 C 2.085938 -8.828125 1.40625 -11.335938 1.40625 -14.140625 C 1.40625 -16.910156 2.070312 -19.394531 3.40625 -21.59375 C 4.738281 -23.800781 6.582031 -25.53125 8.9375 -26.78125 C 11.300781 -28.03125 13.957031 -28.65625 16.90625 -28.65625 C 19.707031 -28.65625 22.25 -28.070312 24.53125 -26.90625 C 26.820312 -25.75 28.632812 -24.066406 29.96875 -21.859375 C 31.3125 -19.660156 31.984375 -17.054688 31.984375 -14.046875 Z M 16.953125 -21.625 C 15.421875 -21.625 14.144531 -21.191406 13.125 -20.328125 C 12.101562 -19.460938 11.457031 -18.285156 11.1875 -16.796875 L 22.71875 -16.796875 C 22.445312 -18.285156 21.796875 -19.460938 20.765625 -20.328125 C 19.742188 -21.191406 18.472656 -21.625 16.953125 -21.625 Z M 16.953125 -21.625 "/></g></g></g><g fill="#000000" fill-opacity="1"><g transform="translate(198.850201, 204.224972)"><g><path d="M 33.546875 -33.59375 L 33.546875 0 L 30.046875 0 L 30.046875 -15.5 L 9.03125 -15.5 L 9.03125 0 L 5.46875 0 L 5.46875 -33.59375 L 9.03125 -33.59375 L 9.03125 -18.625 L 30.046875 -18.625 L 30.046875 -33.59375 Z M 33.546875 -33.59375 "/></g></g></g><g fill="#000000" fill-opacity="1"><g transform="translate(232.306131, 204.224972)"><g><path d="M 19.015625 0.28125 C 14.660156 0.28125 11.265625 -0.960938 8.828125 -3.453125 C 6.398438 -5.953125 5.1875 -9.585938 5.1875 -14.359375 L 5.1875 -33.59375 L 8.734375 -33.59375 L 8.734375 -14.5 C 8.734375 -10.59375 9.613281 -7.675781 11.375 -5.75 C 13.132812 -3.832031 15.679688 -2.875 19.015625 -2.875 C 22.367188 -2.875 24.925781 -3.832031 26.6875 -5.75 C 28.445312 -7.675781 29.328125 -10.59375 29.328125 -14.5 L 29.328125 -33.59375 L 32.78125 -33.59375 L 32.78125 -14.359375 C 32.78125 -9.585938 31.570312 -5.953125 29.15625 -3.453125 C 26.738281 -0.960938 23.359375 0.28125 19.015625 0.28125 Z M 19.015625 0.28125 "/></g></g></g><g fill="#000000" fill-opacity="1"><g transform="translate(264.754066, 204.224972)"><g><path d="M 26.640625 -17.328125 C 28.847656 -16.847656 30.550781 -15.894531 31.75 -14.46875 C 32.945312 -13.050781 33.546875 -11.21875 33.546875 -8.96875 C 33.546875 -6.09375 32.484375 -3.878906 30.359375 -2.328125 C 28.234375 -0.773438 25.085938 0 20.921875 0 L 5.46875 0 L 5.46875 -33.59375 L 19.96875 -33.59375 C 23.707031 -33.59375 26.609375 -32.84375 28.671875 -31.34375 C 30.742188 -29.84375 31.78125 -27.710938 31.78125 -24.953125 C 31.78125 -23.097656 31.320312 -21.519531 30.40625 -20.21875 C 29.5 -18.925781 28.242188 -17.960938 26.640625 -17.328125 Z M 9.03125 -30.671875 L 9.03125 -18.484375 L 19.734375 -18.484375 C 22.453125 -18.484375 24.546875 -19 26.015625 -20.03125 C 27.484375 -21.070312 28.21875 -22.585938 28.21875 -24.578125 C 28.21875 -26.554688 27.484375 -28.066406 26.015625 -29.109375 C 24.546875 -30.148438 22.453125 -30.671875 19.734375 -30.671875 Z M 20.875 -2.921875 C 23.882812 -2.921875 26.15625 -3.429688 27.6875 -4.453125 C 29.226562 -5.484375 30 -7.085938 30 -9.265625 C 30 -13.453125 26.957031 -15.546875 20.875 -15.546875 L 9.03125 -15.546875 L 9.03125 -2.921875 Z M 20.875 -2.921875 "/></g></g></g></svg>